<!-- Page 1 -->
<svg x="0" y="0" stroke-opacity="0"  width="1419" height="550" viewBox="0 0 1419 550" version="1.1" xmlns="http://www.w3.org/2000/svg" xmlns:xlink="http://www.w3.org/1999/xlink"
style="display: block;margin-left: auto;margin-right: auto;">
<defs>

<style type="text/css"><![CDATA[

.g2_1{
fill: #FFFFFF;
opacity: 0;
}
.g3_1{
fill: #EB1845;
}
.g1_1{
fill: #231F20;
}


]]></style>

</defs>
<path d="M0,0
L0,550
L1419,550
L1419,0 Z "
fill="#FFFFFF" stroke="none" />
<path d="M1037.9,312.3c-1.4,3.6,-5.1,10.9,-7.2,13.8c-2.8,0.7,-9.3,2.3,-15.8,2.3c-15.4,0,-26.8,-9.3,-26.8,-26.5c0,-21.8,16.9,-36,38.2,-36c7.3,0,13.1,2,15.7,3c-0.3,4.7,-0.4,9.6,-0.8,14l-2.7,0.3c-0.5,-10.9,-5.3,-14.1,-14.4,-14.1c-16.1,0,-27.1,15.5,-27.1,32.5c0,13.2,6.6,23.6,18.9,23.6c9.2,0,14.6,-6.2,19.6,-14.2l2.4,1.3Z" class="g1_1" />
<path d="M1062.9,290.6c-2.4,1.4,-7,5.6,-8.6,15.9c13.1,-3.5,17,-7.7,17,-12c0,-3.2,-1.9,-5,-4.6,-5c-1.3,0,-2.8,0.4,-3.8,1.1Zm13,27.1c-8.1,8.6,-15,10.4,-19.4,10.4c-4.2,0,-10.1,-2.5,-10.1,-13.4c0,-8.7,3.8,-18.3,11,-23.8c4,-3.1,8.8,-5.2,12.7,-5.2c4.9,0,8.1,3.4,8.1,7.4c0,9.1,-15.5,14,-24.3,16.2c-0.2,1.1,-0.2,2,-0.2,3c0,4.9,1.6,10.4,7.2,10.4c3.9,0,8.8,-2.6,13.4,-7.1l1.6,2.1Z" class="g1_1" />
<path d="M1126.3,319.2c-5.5,5.8,-10.6,8.9,-13,8.9c-2.3,0,-3.1,-2.5,-1.5,-9.6c1.8,-6.9,3.3,-13.6,5,-20.4c1.3,-5.2,0.7,-6.6,-0.7,-6.6c-4.1,0,-14.7,11.4,-19.3,19.2c-1.1,4.5,-2.5,10,-3.6,15.5c-2.4,0.5,-4.9,1.2,-6.6,1.9l-0.6,-0.8c2.5,-9.9,5.2,-20.9,7.5,-31.1c0.7,-3,0.4,-3.7,-0.1,-3.7c-0.9,0,-3.7,1.9,-6,4.1l-1.2,-2.2c5,-5.4,10.4,-8.7,13,-8.7c2.1,0,2.4,3.1,0.7,10.2l-1.9,8l0.1,0c6.3,-8.5,13.1,-13.9,17,-16.2c2.3,-1.4,4.3,-2,6.1,-2c2.2,0,4.8,1.4,2,13.1c-1.4,6.3,-2.9,12.7,-4.5,19.2c-0.5,2.4,-0.4,3.3,0.2,3.3c0.8,0,3.3,-1.7,6.1,-4.3l1.3,2.2Z" class="g1_1" />
<path d="M1158,290.3l-9.1,0.5l-5.4,25.3c-1,4.5,-0.5,5.5,0.5,5.5c1.6,0,6.1,-3,8.3,-5.3l1.3,1.9c-3.1,3.7,-10,9.9,-14.8,9.9c-2.1,0,-4,-2.7,-2,-12.2l5.5,-25.1l-6.8,0l-0.3,-0.9l2.3,-2.7l5.5,0l2.1,-8.8l7,-5.7l0.8,0.6l-3.2,13.9l10.7,0l-2.4,3.1Z" class="g1_1" />
<path d="M1178.9,290.6c-2.5,1.4,-7.1,5.6,-8.7,15.9c13.2,-3.5,17,-7.7,17,-12c0,-3.2,-1.9,-5,-4.6,-5c-1.3,0,-2.7,0.4,-3.7,1.1Zm12.9,27.1c-8.1,8.6,-15,10.4,-19.4,10.4c-4.2,0,-10.1,-2.5,-10.1,-13.4c0,-8.7,3.8,-18.3,11,-23.8c4,-3.1,8.9,-5.2,12.7,-5.2c4.9,0,8.1,3.4,8.1,7.4c0,9.1,-15.4,14,-24.3,16.2c-0.1,1.1,-0.1,2,-0.1,3c0,4.9,1.5,10.4,7.1,10.4c3.9,0,8.9,-2.6,13.5,-7.1l1.5,2.1Z" class="g1_1" />
<path d="M1201.2,294.7c4.7,-5.2,10.4,-9,12.9,-9c2.3,0,2.4,4.2,1,10.7l-0.9,4.6l0.2,0c4.7,-9,10.1,-15.3,13.8,-15.3c1.6,0,3.1,1,4,2.3c0.6,1.2,0.6,2.7,-0.1,4c-0.7,1.1,-1.6,2,-2.4,2.6c-0.8,0.6,-1.6,0.6,-2,0.1c-1,-1.1,-2.1,-1.6,-3.2,-1.6c-1.1,0,-2.5,1,-4.6,3.9c-2.1,3,-4.9,7.3,-6.6,11.4c-1.4,6.2,-2.5,12,-3.6,18c-2.1,0.3,-4.6,0.9,-6.6,1.7l-0.7,-0.8c2.4,-9.8,5,-21.1,6.7,-30.9c0.6,-3.1,0.6,-4,-0.2,-4c-0.8,0,-3.8,1.9,-6.5,4.4l-1.2,-2.1Z" class="g1_1" />
<path d="M1267.8,287.2c1.4,-7,3.6,-13.7,7.8,-18.3c4.2,-4.7,9.4,-7.4,13.1,-7.4c3.2,0,5.6,2.3,5.5,4c0,1.4,-1.3,3,-2.3,3.7c-0.7,0.6,-1.6,0.7,-2.3,0c-1.9,-2.1,-3.8,-3.3,-5.8,-3.3c-3.4,0,-6.1,4.3,-8.9,21.3l10.4,0l-1.9,2.8l-9.2,0.9c-1.7,10.2,-2.7,15.8,-4.7,26c-3.2,15.8,-6.6,22.7,-11.7,27.9c-4,4.3,-7.9,5.8,-10.4,5.8c-2.6,0,-5.8,-1.8,-5.7,-4c0,-1.1,1.1,-2.7,2.5,-3.8c0.8,-0.7,1.2,-0.6,1.8,0c1.4,1.4,4.1,2.3,5.8,2.3c1.5,0,3,-0.8,3.9,-1.9c1.2,-1.3,3.4,-5.2,6.4,-23c2.2,-12.7,3.4,-20.4,5,-29.4l-7.6,0l-0.3,-1.1l2.8,-2.5l5.8,0Z" class="g1_1" />
<path d="M1303,323.9c4.9,-2.2,10,-11.9,10,-23.7c0,-7.4,-3.2,-11,-7.5,-11c-1.3,0,-2.5,0.4,-3.5,0.8c-3.5,1.6,-9.7,9.1,-9.7,23.3c0,6.8,2.8,11.1,7.7,11.1c1.1,0,2,-0.2,3,-0.5Zm-18.4,-10.2c0,-11.9,6.3,-21,13.9,-25.1c3.4,-1.7,7.1,-2.9,10,-2.9c7.6,0,12.2,5.2,12.2,14.3c0,7.9,-3.4,17,-9.8,22.3c-4,3.3,-9,5.8,-14.2,5.8c-8.7,0,-12.1,-6.9,-12.1,-14.4Z" class="g1_1" />
<path d="M1328.8,294.7c4.7,-5.2,10.4,-9,12.9,-9c2.3,0,2.3,4.2,1,10.7l-1,4.6l0.3,0c4.7,-9,10.1,-15.3,13.8,-15.3c1.6,0,3.1,1,4,2.3c0.6,1.2,0.6,2.7,-0.1,4c-0.7,1.1,-1.6,2,-2.4,2.6c-0.8,0.6,-1.6,0.6,-2,0.1c-1.1,-1.1,-2.2,-1.6,-3.2,-1.6c-1.1,0,-2.5,1,-4.7,3.9c-2,3,-4.8,7.3,-6.5,11.4c-1.4,6.2,-2.6,12,-3.7,18c-2,0.3,-4.5,0.9,-6.5,1.7l-0.7,-0.8c2.4,-9.8,4.9,-21.1,6.7,-30.9c0.5,-3.1,0.5,-4,-0.2,-4c-0.8,0,-3.8,1.9,-6.5,4.4l-1.2,-2.1Z" class="g1_1" />
<path d="M382,439.9c0,7.7,2,9.7,8.9,9.7c8.8,-0.1,16.6,-4.6,16.6,-15.8c0,-11,-7.5,-15.8,-20.6,-15.8l-4.9,0l0,21.9Zm5,-25.5c11.8,0,16.8,-4.7,16.8,-13.7c0,-7.3,-4.1,-13.7,-14.3,-13.7c-2.7,0,-5,0.4,-6.1,1c-1,0.7,-1.4,1.8,-1.4,5.4l0,21l5,0Zm12.2,1.3c10.6,1.6,19,6.3,19,17.1c0,7.2,-4,12.6,-10.3,16.2c-5.5,3,-12.6,4.3,-21.1,4.3l-23.7,0l0,-3C372.3,449.6,373,449,373,440l0,-43.3c0,-8.9,-0.4,-9.5,-9,-10.2l0,-3l27.5,0c8.1,0,12.8,1.3,16.1,3.7c3.9,2.5,6.1,7.3,6.1,12.2c0,10.2,-8.5,14.4,-14.5,16l0,0.3Z" class="g1_1" />
<path d="M430.6,390.3c0,-3.2,2.6,-5.6,5.5,-5.6c3,0,5.3,2.4,5.3,5.6c0,2.9,-2.3,5.5,-5.4,5.5c-2.8,0,-5.4,-2.6,-5.4,-5.5Zm-5.7,63l0,-2.8c6.8,-0.7,7.5,-1.3,7.5,-8.6l0,-22.1c0,-6.7,-0.3,-7.1,-6.7,-8.2l0,-2.5c5.4,-0.9,10.5,-2.3,15.2,-4.2l0,37c0,7.3,0.8,7.9,7.6,8.6l0,2.8l-23.6,0Z" class="g1_1" />
<path d="M464.2,427.4c0,13.5,5.9,23.6,14.7,23.6c6.6,0,12.1,-4.9,12.1,-19.6c0,-12.6,-5,-22.8,-14.4,-22.8c-6.6,0,-12.4,6.7,-12.4,18.8ZM501,429c0,17.3,-12.7,25.6,-23.3,25.6c-14.7,0,-23.5,-11.8,-23.5,-23.8c0,-17.7,13.7,-25.7,23.5,-25.7c13.3,0,23.3,10.6,23.3,23.9Z" class="g1_1" />
<path d="M566.2,453.3l0,-2.8c6.4,-0.7,7.5,-1.1,7.5,-8.7l0,-17.9c0,-7.7,-2.6,-12.5,-9.4,-12.5c-3.9,0,-7.9,2.2,-12,5.6c0.2,1.3,0.3,2.5,0.3,4.5l0,20.9c0,6.8,1,7.4,6.9,8.1l0,2.8l-23,0l0,-2.8c6.7,-0.7,7.6,-1.2,7.6,-8.3l0,-18.4c0,-8,-2.8,-12.4,-9.3,-12.4c-4.3,0,-8.5,2.9,-11.7,5.6l0,25.2c0,7,0.8,7.6,6.1,8.3l0,2.8l-22.6,0l0,-2.8c7,-0.7,8,-1.3,8,-8.3l0,-22.2c0,-6.9,-0.3,-7.4,-6.5,-8.4l0,-2.4c4.7,-0.9,10.2,-2.3,14.9,-4.4l0,8.7c2.2,-1.5,4.6,-3.5,7.8,-5.5c2.8,-1.7,5.4,-2.9,8.8,-2.9c5.2,0,9.8,3.2,11.9,8.8c3.1,-2.4,6.3,-4.4,8.9,-6c2.3,-1.5,5.1,-2.8,8.1,-2.8c8.4,0,13.6,5.9,13.6,16.4l0,20.7c0,7.2,0.9,7.6,7,8.3l0,2.8l-22.9,0Z" class="g1_1" />
<path d="M604.1,422.3c6,0,11.9,-0.2,18.1,-0.4c2,0,2.6,-0.6,2.6,-2.1c0.1,-5.6,-3.5,-10.7,-9.4,-10.7c-5,0,-9.7,4.5,-11.3,13.2Zm29.4,21.8c-6.8,8.5,-14.2,10.5,-17.5,10.5c-13.2,0,-20.9,-10.8,-20.9,-22.9c0,-7.4,2.7,-14,7.1,-18.8c4.4,-4.9,10.2,-7.8,15.7,-7.8c8.9,0,16.1,7.9,16.1,16.3c0,2.1,-0.5,3,-2.4,3.4c-1.9,0.4,-15.3,1.4,-28,1.9c0.1,14.5,8.4,20.6,16,20.6c4.2,0,8.3,-1.8,12.2,-5.4l1.7,2.2Z" class="g1_1" />
<path d="M676.1,414.5c-2.6,-3.7,-7,-5.4,-11.1,-5.4c-4.9,0,-13.9,4.1,-13.9,19.7c0,12.8,7.8,19,14.7,19c3.9,0,7.7,-1.7,10.3,-3.7l0,-29.6Zm16.6,36c-2.3,0.4,-10.4,1.8,-16.6,4.1l0,-7l-6.5,3.8c-4.2,2.5,-7.1,3.2,-8.4,3.2c-8.6,0,-19.9,-7.9,-19.9,-22.9c0,-14.9,13.1,-26.6,27.7,-26.6c1.5,0,4.6,0.3,7.1,1.2l0,-15.2c0,-7,-0.5,-7.4,-8.3,-7.9l0,-2.6c5.6,-0.7,12.8,-2.3,16.8,-3.7l0,64c0,5.6,0.7,6.1,4.7,6.6l3.4,0.3l0,2.7Z" class="g1_1" />
<path d="M703,390.3c0,-3.2,2.6,-5.6,5.5,-5.6c3,0,5.4,2.4,5.4,5.6c0,2.9,-2.4,5.5,-5.5,5.5c-2.8,0,-5.4,-2.6,-5.4,-5.5Zm-5.7,63l0,-2.8c6.8,-0.7,7.6,-1.3,7.6,-8.6l0,-22.1c0,-6.7,-0.4,-7.1,-6.8,-8.2l0,-2.5c5.5,-0.9,10.5,-2.3,15.2,-4.2l0,37c0,7.3,0.8,7.9,7.6,8.6l0,2.8l-23.6,0Z" class="g1_1" />
<path d="M766.4,443.6c-4.7,6.2,-11.9,11,-18.2,11c-13.5,0,-21.5,-11,-21.5,-22.5c0,-8.2,3.6,-15.4,10.8,-21c5.5,-4.3,12,-6,16.2,-6c4.3,0,7.8,1.4,9.5,2.8c1.4,1.2,1.7,2.1,1.7,3.3c0,2.3,-2.3,4.6,-3.5,4.6c-0.5,0,-1.1,-0.3,-2,-1.2c-3.3,-3,-7,-4.4,-10.8,-4.4c-7.1,0,-13.3,5.9,-13.3,17.2c0,14.9,10.2,19.9,16.2,19.9c4.6,0,8.2,-1.3,13.1,-5.9l1.8,2.2Z" class="g1_1" />
<path d="M797.9,427.5c-2.3,1.2,-7.4,3.4,-9.7,4.5c-4.2,2,-6.5,4,-6.5,7.9c0,5.5,4.3,8.2,7.6,8.2c2.8,-0.1,6.5,-1.9,8.6,-3.8l0,-16.8Zm7.8,27.1c-1.6,0,-3.9,-1,-5,-2.1c-1.4,-1.5,-2.1,-3,-2.6,-4.8c-4.3,2.9,-9.5,6.9,-12.7,6.9c-7.6,0,-12.8,-6.4,-12.8,-13.1c0,-5.3,2.7,-8.6,8.6,-10.7c6.5,-2.1,14.3,-5,16.7,-6.9l0,-2c0,-7.7,-3.7,-12.1,-9,-12.1c-2.2,0,-3.8,0.9,-4.9,2.2c-1.4,1.3,-2.3,3.7,-3.2,7c-0.4,1.8,-1.6,2.5,-3.1,2.5c-1.9,0,-4.7,-2.1,-4.7,-4.6c0,-1.6,1.4,-2.8,3.4,-4.3c3,-2.1,10,-6.3,16.1,-7.5c3.2,0,6.4,1,8.8,2.9c3.8,3.1,4.8,7.5,4.8,13.1l0,19.9c0,4.9,2,6.5,3.8,6.5c1.3,0,2.8,-0.6,3.9,-1.2l1,2.8l-9.1,5.5Z" class="g1_1" />
<path d="M817.6,453.3l0,-2.8c6.8,-0.7,7.7,-1.3,7.7,-8.4l0,-50.7c0,-7.3,-0.6,-7.7,-7.4,-8.2l0,-2.6c5.6,-0.6,12.3,-2.4,15.9,-3.7l0,65.2c0,7.1,0.9,7.7,7.7,8.4l0,2.8l-23.9,0Z" class="g1_1" />
<path d="M871.6,453.3l0,-3c8.8,-0.7,9.6,-1.3,9.6,-10.4l0,-43c0,-9.1,-0.8,-9.7,-9.6,-10.4l0,-3l28.4,0l0,3c-8.8,0.7,-9.6,1.3,-9.6,10.4l0,43c0,9.2,0.8,9.7,9.6,10.4l0,3l-28.4,0Z" class="g1_1" />
<path d="M936.2,453.3l0,-2.8c6.3,-0.7,7.1,-1.5,7.1,-8.9l0,-17.9c0,-7.5,-2.6,-12.3,-9.8,-12.3c-4.3,0,-8.5,2.7,-11.7,5.5l0,25.2c0,7.3,0.6,7.7,7,8.4l0,2.8l-23.3,0l0,-2.8c7.3,-0.8,7.8,-1.3,7.8,-8.4l0,-22.2c0,-6.9,-0.6,-7.2,-6.4,-8.3l0,-2.4c5.1,-1,10.2,-2.3,14.9,-4.4l0,8.5c2.1,-1.6,4.5,-3.2,7.2,-5c3,-1.9,5.8,-3.2,8.9,-3.2c8.5,0,13.8,5.9,13.8,16.3l0,20.7c0,7.3,0.6,7.7,6.8,8.4l0,2.8l-22.3,0Z" class="g1_1" />
<path d="M971.9,406.4l0,-2.4c0,-3.3,0.4,-6.4,1.2,-8.8c0.7,-2.3,2.5,-7.6,8.2,-12.5c3.8,-3.4,7.7,-5.3,11.9,-5.8c3.6,0.1,6.7,1.6,8.4,3.6c1,1.2,1.1,2.6,0.6,3.8c-0.4,0.8,-1,1.7,-2.1,2.5c-0.9,0.8,-1.9,0.8,-2.9,-0.3c-2.1,-1.9,-5.1,-3.9,-8.7,-3.9c-2.8,0,-4.5,1.2,-5.6,3.2c-1.4,2,-2.6,7.2,-2.5,16.3l0,4.3l12.6,0c0.7,0.9,0.2,3.5,-1,4.2l-11.6,0l0,30.9c0,7.9,0.7,8.2,9.2,9.1l0,2.7l-25.3,0l0,-2.8c6.9,-0.7,7.6,-1.2,7.6,-8.3l0,-31.6l-7.5,0L964,409.5l2.9,-3.1l5,0Z" class="g1_1" />
<path d="M1005.8,427.4c0,13.5,5.9,23.6,14.7,23.6c6.7,0,12.1,-4.9,12.1,-19.6c0,-12.6,-5,-22.8,-14.3,-22.8c-6.7,0,-12.5,6.7,-12.5,18.8Zm36.8,1.6c0,17.3,-12.6,25.6,-23.3,25.6c-14.7,0,-23.5,-11.8,-23.5,-23.8c0,-17.7,13.8,-25.7,23.5,-25.7c13.3,0,23.3,10.6,23.3,23.9Z" class="g1_1" />
<path d="M1064.9,416.5c3.3,-5.4,7.9,-11.4,13,-11.4c3.7,0,6.2,2.8,6.2,5.4c0,2.1,-1.4,4.2,-3.4,5.2c-1.3,0.5,-2.2,0.4,-2.9,-0.2c-1.5,-1.6,-2.8,-2.3,-4.5,-2.3c-2.8,0,-6.2,3.3,-8.6,9.3l0,19.6c0,7.1,0.6,7.7,8.8,8.4l0,2.8l-24.7,0l0,-2.8c6.7,-0.7,7.4,-1.3,7.4,-8.4l0,-22.2c0,-7.1,-0.5,-7.5,-6.6,-8.4l0,-2.3c5.2,-0.9,10,-2.2,15.1,-4.4l0,11.7l0.2,0Z" class="g1_1" />
<path d="M1148.3,453.3l0,-2.8c6.3,-0.7,7.5,-1.1,7.5,-8.7l0,-17.9c0,-7.7,-2.7,-12.5,-9.4,-12.5c-3.9,0,-8,2.2,-12,5.6c0.2,1.3,0.3,2.5,0.3,4.5l0,20.9c0,6.8,0.9,7.4,6.8,8.1l0,2.8l-22.9,0l0,-2.8c6.6,-0.7,7.6,-1.2,7.6,-8.3l0,-18.4c0,-8,-2.8,-12.4,-9.3,-12.4c-4.3,0,-8.5,2.9,-11.7,5.6l0,25.2c0,7,0.8,7.6,6.1,8.3l0,2.8l-22.7,0l0,-2.8c7.1,-0.7,8.1,-1.3,8.1,-8.3l0,-22.2c0,-6.9,-0.3,-7.4,-6.6,-8.4l0,-2.4c4.8,-0.9,10.2,-2.3,15,-4.4l0,8.7c2.2,-1.5,4.6,-3.5,7.8,-5.5c2.8,-1.7,5.4,-2.9,8.8,-2.9c5.1,0,9.8,3.2,11.9,8.8c3.1,-2.4,6.2,-4.4,8.9,-6c2.3,-1.5,5.1,-2.8,8.1,-2.8c8.3,0,13.6,5.9,13.6,16.4l0,20.7c0,7.2,0.8,7.6,7,8.3l0,2.8l-22.9,0Z" class="g1_1" />
<path d="M1202.8,427.5c-2.2,1.2,-7.4,3.4,-9.6,4.5c-4.2,2,-6.6,4,-6.6,7.9c0,5.5,4.3,8.2,7.6,8.2c2.8,-0.1,6.6,-1.9,8.6,-3.8l0,-16.8Zm7.8,27.1c-1.6,0,-3.8,-1,-5,-2.1c-1.4,-1.5,-2,-3,-2.6,-4.8c-4.3,2.9,-9.4,6.9,-12.6,6.9c-7.7,0,-12.9,-6.4,-12.9,-13.1c0,-5.3,2.8,-8.6,8.7,-10.7c6.4,-2.1,14.2,-5,16.6,-6.9l0,-2c0,-7.7,-3.6,-12.1,-9,-12.1c-2.1,0,-3.8,0.9,-4.8,2.2c-1.4,1.3,-2.4,3.7,-3.3,7c-0.4,1.8,-1.6,2.5,-3.1,2.5c-1.9,0,-4.7,-2.1,-4.7,-4.6c0,-1.6,1.4,-2.8,3.4,-4.3c3.1,-2.1,10,-6.3,16.1,-7.5c3.3,0,6.5,1,8.8,2.9c3.8,3.1,4.9,7.5,4.9,13.1l0,19.9c0,4.9,1.9,6.5,3.7,6.5c1.3,0,2.8,-0.6,3.9,-1.2l1.1,2.8l-9.2,5.5Z" class="g1_1" />
<path d="M1243,453.2c-1.8,0.9,-3.5,1.4,-4.5,1.4c-6.7,0,-10.5,-4.3,-10.5,-12.8l0,-31.2l-7.4,0l-0.4,-1.1l2.9,-3.1l4.9,0l0,-7.9l7,-7l1.5,0.2l0,14.7l12.1,0c1,1,0.7,3.4,-0.6,4.2l-11.5,0l0,27.5c0,8.7,3.5,10.3,6.2,10.3c2.7,0,5.2,-1,6.7,-1.8l0.9,2.8l-7.3,3.8Z" class="g1_1" />
<path d="M1260.7,390.3c0,-3.2,2.6,-5.6,5.5,-5.6c3,0,5.4,2.4,5.4,5.6c0,2.9,-2.4,5.5,-5.5,5.5c-2.8,0,-5.4,-2.6,-5.4,-5.5Zm-5.6,63l0,-2.8c6.7,-0.7,7.5,-1.3,7.5,-8.6l0,-22.1c0,-6.7,-0.3,-7.1,-6.8,-8.2l0,-2.5c5.5,-0.9,10.5,-2.3,15.2,-4.2l0,37c0,7.3,0.8,7.9,7.7,8.6l0,2.8l-23.6,0Z" class="g1_1" />
<path d="M1324.2,443.6c-4.8,6.2,-11.9,11,-18.3,11c-13.5,0,-21.4,-11,-21.4,-22.5c0,-8.2,3.5,-15.4,10.7,-21c5.6,-4.3,12,-6,16.2,-6c4.3,0,7.8,1.4,9.5,2.8c1.4,1.2,1.8,2.1,1.8,3.3c0,2.3,-2.4,4.6,-3.6,4.6c-0.5,0,-1.1,-0.3,-2,-1.2c-3.2,-3,-7,-4.4,-10.8,-4.4c-7,0,-13.3,5.9,-13.3,17.2c0,14.9,10.2,19.9,16.2,19.9c4.7,0,8.2,-1.3,13.1,-5.9l1.9,2.2Z" class="g1_1" />
<path d="M1357.3,419c-2,-6.3,-5.8,-10.6,-11,-10.6c-4.1,0,-7,3.2,-7,7.4c0,4.8,4.3,7.3,9.1,9.4c8.1,3.3,13.5,7.1,13.5,14.5c0,9.8,-9.1,14.9,-17.7,14.9c-5.4,0,-10.4,-2.1,-12.3,-3.7c-0.8,-1.5,-1.7,-8.8,-1.7,-12.7l2.8,-0.5c1.9,7.1,6.7,13.3,13.2,13.3c3.9,0,7.6,-3,7.6,-7.5c0,-4.7,-3.1,-7.3,-8.5,-9.8c-6.4,-3,-13.4,-6.5,-13.4,-14.8c0,-7.5,6.4,-13.8,16.3,-13.8c4.4,0,7.3,1,9.5,1.8c0.9,2.5,2.1,8.8,2.4,11.5l-2.8,0.6Z" class="g1_1" />
<path d="M390.1,278l0,32.3c0,9.9,1.9,13.3,12.7,13.1c12.4,0,22.9,-6.2,22.9,-21.9C425.7,285.4,413.9,278,398.6,278l-8.5,0Zm0,-4.3l9.3,0c14.2,0,21.3,-6.7,21.3,-18.8c0,-8.9,-3.7,-18.8,-21.2,-18.8c-4.8,0,-6.9,0.4,-8.1,0.9c-0.9,0.3,-1.3,0.9,-1.3,3.8l0,32.9Zm14.5,-41.9c10.6,0,16.7,1.8,21.6,5.2c5,3.5,7.7,8.9,7.7,16.3c0,13,-12.3,19.4,-19.4,21.1l0,0.3c13.5,2,25.6,10,25.6,24.9c0,10.5,-5.2,17.9,-13.8,22.8c-7.5,4.1,-17,5.6,-28.2,5.6L364,328l0,-3.4c12.4,-0.9,13.6,-1.9,13.6,-18l0,-53.3c-0.1,-16.2,-1,-17.2,-12.7,-18.1l0,-3.4l39.7,0Z" class="g1_1" />
<path d="M491.6,281.4l8.6,0c6.1,0,10.8,-0.7,14.8,-4c6.4,-5,8.6,-12.3,8.6,-19.5c0,-15.6,-11.3,-21.8,-22.4,-21.8c-5,0,-7.1,0.3,-8.2,0.7c-0.9,0.3,-1.4,1.1,-1.4,4l0,40.6Zm0,25.2c0,16.1,1.2,17.1,13.3,18l0,3.4l-39.3,0l0,-3.4c12.4,-0.9,13.6,-1.9,13.6,-18l0,-53.3c0,-16.2,-1.2,-17.2,-13,-18.1l0,-3.4l37.6,0c9.4,0,17.9,1.3,23.3,5c6,3.7,9.8,10.4,9.8,19c0,12.3,-7.5,21,-19.5,25.9c2.6,4.4,8.7,14.6,13.2,21.2c5.3,7.8,8.4,11.8,12.4,16.2c3.1,3.7,5.8,6.1,11.1,7.4l-0.3,2.9l-2.1,0c-17,-0.5,-22.2,-5.7,-27.8,-13.8C519.3,308.9,513.1,298,508.9,291c-2.3,-3.8,-4.7,-5.3,-9.3,-5.3l-8,0l0,20.9Z" class="g1_1" />
<path d="M616.9,234.5c-17.5,0,-32.3,14.3,-32.3,42.2c0,28.5,15,48.7,36.6,48.7c17.7,0,32.2,-13.8,32.2,-41.3c0,-32,-15.4,-49.6,-36.5,-49.6Zm50.9,44.1c0,30.8,-21.5,51.6,-49.7,51.6c-28,0,-47.9,-21.3,-47.9,-49.3c0,-24.8,17.5,-51.3,50.5,-51.3c25.6,0,47.1,19.8,47.1,49Z" class="g1_1" />
<path d="M719.9,235.2l-4.6,0.6c-6.6,0.9,-7.5,2.2,-5.4,8.7l19.9,63.1l0.3,0l23.7,-74.3l3.6,0l26.8,74.1l0.3,0c6,-18.6,14.6,-49.8,17.1,-60.5c2.1,-8.6,1.4,-10.4,-5.3,-11.1L792,235.2l0,-3.4l31.4,0l0,3.4c-9.8,1.2,-10.8,1.8,-15.7,15.3c-1.3,3.7,-12.1,37.7,-24.6,78.4l-4,0L752.5,256.5l-0.3,0.3l-24.1,72.1l-4.2,0L698.3,249.4c-4,-12.3,-6.2,-13.3,-14.6,-14.2l0,-3.4l36.2,0l0,3.4Z" class="g1_1" />
<path d="M931.2,329.1l-3.9,0L863.1,251l-0.3,0l0,37.8c0,15.5,0.6,23.5,1.2,28.1c0.7,5.2,4.7,7.3,14.5,7.7l0,3.4l-35.6,0l0,-3.4c8.2,-0.3,12,-2.5,12.8,-7.7c0.6,-4.6,1.2,-12.6,1.2,-28.1l0,-32.1c0,-10.7,-0.2,-13.1,-2.8,-16.5c-2.9,-3.5,-6.9,-4.6,-13.1,-5l0,-3.4l21.6,0L925,306.4l0.3,0l0,-35.4c0,-15.5,-0.6,-23.5,-1.2,-28.1c-0.8,-5.2,-4.8,-7.3,-14.5,-7.7l0,-3.4l35.5,0l0,3.4c-8.2,0.3,-12,2.5,-12.7,7.7c-0.6,4.6,-1.2,12.6,-1.2,28.1l0,58.1Z" class="g1_1" />
<path d="M143.4,114.3c0.5,0.8,1.1,1.8,2,3.3c2.3,3.9,6,18.5,10.7,23.4c2.5,-1.7,6.8,-3.9,9.3,-4.8c-0.6,-0.9,-3.2,-5.4,-6.1,-9.3c-5.7,-7.5,-9.7,-11.5,-10.2,-12.1c-1.5,-0.1,-4.1,0,-5.7,-0.5Z" class="g2_1" />
<path d="M185.8,133.8c1.1,-7.7,-1.5,-20.4,-3,-23.6c-1.9,-0.5,-3.9,-1.2,-5.5,-2c-0.2,1,-1.6,6.2,-2.1,13.9c-0.3,4.1,-0.2,10.3,0.6,11.7c2.4,-0.3,6.5,-0.3,10,0Z" class="g2_1" />
<path d="M206.2,165.8c-2.2,-1.8,-5,-2.6,-6.1,-1.8l0,0.4c0.3,2.6,-1.7,4.9,-4.3,5.2c-2.7,0.2,-5,-1.8,-5.2,-4.4l0,-0.2c-1.7,-0.6,-4.5,0.4,-4.9,0.2c-0.2,-0.1,-1.4,-4.9,0.2,-5.6c4.1,-1.6,17.4,-2.5,21.3,5c0.4,0.9,0.2,2.1,-1,1.2Zm-20.4,13.5c-0.8,2.5,-9.5,3.3,-11.1,0.1c-0.6,-1.3,-1.5,-4.5,-0.3,-3.9c1.9,1.2,8.9,0.4,10.2,0c1.2,-0.3,0.4,-1.9,1.1,-1.7c0.9,0.3,0.9,3.2,0.1,5.5ZM172.1,165c-0.1,2.6,-2.4,4.7,-5.1,4.5c-2.6,-0.1,-4.6,-2.4,-4.5,-5l0.1,-0.5c-0.5,-0.7,-2.6,-1.4,-5.8,0.6c-1.6,1,-3.4,0.3,-0.6,-2.1c2.9,-2.6,5.8,-4.1,8.2,-4.4l0.1,0c4.2,-0.3,9.6,0.5,12.2,1.6c1,0.4,-0.1,5.6,-0.3,5.5c-0.9,-0.2,-2.7,-1,-4.3,-0.6l0,0.4Zm50.2,14c0,-23.1,-18.1,-41.2,-41.2,-41.2c-22.8,0,-41.2,18.5,-41.2,41.2c0,1.1,0.2,3.3,0.6,5.6c11.9,-2.8,27.6,-2.4,34.6,3.2c11.3,-6.5,27.5,-6.9,39.5,0.1c2.3,-1.2,4.8,-2.1,7.3,-2.8c0.3,-2.2,0.4,-4.5,0.4,-6.1Z" class="g2_1" />
<path d="M208.7,113.8c-4.8,4.1,-12.2,14,-13.2,22c2.3,0.9,8.3,3.8,9.1,4.5c6,-5.9,4.8,-12.4,7.1,-17.4c1,-2.2,2,-3.9,2.5,-4.8c-1.9,-1.1,-4,-2.6,-5.5,-4.3Z" class="g2_1" />
<path d="M237.6,129.5c-1.1,0.6,-3.6,2.2,-4.4,2.8c-5.7,4.3,-18.1,10.1,-21,13.3c2.3,2,5.6,5.6,7.2,8.7c1.4,0,5.4,-3.2,13.3,-12.6c2.6,-3,5.3,-4.5,10.2,-7.3c-2.1,-1.4,-3.8,-3.1,-5.3,-4.9Z" class="g2_1" />
<path d="M137.7,164c-2.7,-2.6,-8,-4.9,-15,-4.3c-14.1,1.1,-23.5,0.2,-28.9,-0.6c-9.1,-1.3,-14.9,0,-19.4,0c-14,0,0.3,1.2,2,1.9c6.6,2.6,19.8,5.8,30.2,5.1c5.1,-0.4,13.7,2.7,15.1,3.2c3.8,1.4,10.5,3.6,14.2,3.5c0.2,-1.7,1.1,-6.7,1.8,-8.8Z" class="g2_1" />
<path d="M149.1,146.6c-7.1,-5.8,-13.7,-7,-24.1,-11.9c-2.4,-1.1,-6.4,-3.8,-6.6,-3.9c-0.3,-0.2,-0.8,-0.5,-1.5,-0.9c-0.6,1.9,-1.8,4.6,-3,6.1c1.7,2.1,13.4,15.4,28.3,19.6c1.7,-2.9,4.3,-6.2,6.9,-9Z" class="g2_1" />
<path d="M299.1,156.9c-0.7,-0.1,-3.3,-0.4,-5,-0.4c-2.3,0,-17.1,0,-21.1,0.7c-8.3,1.3,-24.3,0.6,-33.1,0.3c-6.6,-0.3,-14.1,2.3,-16.4,3.5c0,0,2.5,6.3,2.7,10.6c2.8,0.5,5.4,-3,13.4,-2.9c8.3,0.2,28.7,-1,39,-5c7.8,-3,14.2,-4.5,19.5,-5.5c1.8,-0.4,4.5,-0.7,1,-1.3Z" class="g2_1" />
<path d="M109.6,100.2c1.3,-7,8.2,-17.2,23.8,-13.2c2,0.4,0.8,5.3,-1.2,4.5C120.7,87,115,95.7,113.1,102.6c-0.2,0.9,-4.1,0.5,-3.5,-2.4Zm-5.5,8.6c-6.5,0.7,-8.4,3.9,-9.5,7.5c-0.5,1.3,-4.1,0.4,-3.6,-2.3c1.7,-8,10.4,-9.9,13.5,-9.2c1.1,0.2,0.7,3.9,-0.4,4ZM86.1,123c-4.4,0,-8,0.1,-11.1,3.5c-3.3,3.6,-2.5,5.5,-3.1,6.2C71,133.6,68.7,132,68.8,130.2C69,121.8,79.2,118.5,85.2,119.1c2.3,0.3,2.9,3.9,0.9,3.9ZM148.4,81c3.8,-6,16.8,-15.3,28.3,-5.1c1.3,1.1,-0.2,5.3,-1.7,4.3C164.5,73,156.2,78.8,151.8,84c-2.1,2.5,-4.3,-1.6,-3.4,-3Zm34.8,-1.1c4.1,-6.7,25.7,-13,36.8,6c1.2,2.1,-0.4,3.3,-1.7,4.1c-0.8,0.7,-1.4,-0.8,-1.9,-1.7c-9.4,-14.9,-26.5,-10.9,-31,-4c-1,1.4,-3.4,-2.4,-2.2,-4.4ZM230,90.7c5.7,-2.1,15.5,-3,18.1,6.6c0.7,2.7,-2.6,4,-3.3,2.1c-2.7,-6.9,-7.7,-6.7,-13.6,-4.8C228.4,95.5,229.1,91,230,90.7Zm26.5,13c6.2,-3.6,18.8,-2.9,22.8,8.3c0.6,1.9,-1.9,5.2,-3.5,2.3C271.1,105.6,263.4,105.6,257,108c-1.4,0.6,-2.7,-3,-0.5,-4.3Zm27.2,12.6c6.4,-1.4,14,3.2,11.8,11.7c-0.3,1.5,-3.9,1.6,-3.8,0.1c0.5,-7.2,-3,-7.7,-7.7,-7.7c-1.8,0.1,-1.6,-3.8,-0.3,-4.1ZM114.2,115.6c0.7,-0.5,1.6,-0.5,2.4,-0.2c7,2.3,17,0.7,21.7,-6.7c0.7,-1,2,-1.4,3.1,-0.9c4.8,1.9,14.8,2.8,26.8,-9.4c0.9,-0.9,2.4,-0.8,3.4,0c10.6,8.5,21.6,9,32.9,1.6c0.6,-0.5,1.5,-1.1,2.3,-0.8c0.8,0.4,1.3,1,1.5,1.9c3.6,16.5,20.9,15,26.1,14.2c0.6,-0.1,1.3,0,1.9,0.4c0.5,0.4,0.9,1.1,1,1.7c0.5,3.9,4.8,11.4,12.3,15.2c6.3,3.3,13.2,3,20.5,-0.7c0.8,-0.4,1.6,-0.4,2.4,0c9.3,5,17.8,5.3,23.1,0.8c3.8,-3.2,5.3,-8.3,3.8,-12.8c-1.7,-5,-6.7,-8.2,-13.7,-8.6c-1.2,-0.1,-2.2,-1,-2.4,-2.1c-0.6,-4,-2.8,-7.3,-6.4,-9.5c-5.6,-3.4,-13.7,-3.8,-21.7,-1.1c-0.7,0.2,-1.5,0.2,-2.2,-0.2c-0.6,-0.4,-1,-1.1,-1.1,-1.8c-0.5,-3.1,-1.8,-7.3,-5.7,-9.7c-4.1,-2.5,-10.3,-2.4,-17.9,0.2c-1.2,0.4,-2.5,-0.1,-3.1,-1.2C220.4,76.5,213.5,70.4,205.4,68.2C198.1,66.3,190,67.7,183.2,72.1c-0.8,0.6,-2,0.5,-2.8,-0.1c-6.9,-5.2,-15.1,-6.8,-22.5,-4.5c-7.3,2.2,-12.8,7.9,-15.6,15.9c-0.2,0.7,-0.7,1.2,-1.3,1.5c-0.7,0.3,-1.4,0.3,-2,0c-11.1,-4.4,-20.2,-4.3,-26.2,0.4c-5.2,4,-6.9,10.3,-6.6,12.1c0.2,1.3,-0.6,2.5,-1.9,2.8l-2.6,0.6c-6.2,1.4,-12.5,2.9,-14.5,12.7c-0.2,1.1,-1.1,1.9,-2.2,2c-10.7,1.1,-17.7,5.1,-19.2,10.9c-1,4.1,0.9,8.8,4.7,11.3c3.8,2.6,8.4,2.4,12.6,-0.7c0.7,-0.5,1.6,-0.6,2.4,-0.3c6.2,2.4,16.4,1.9,22.6,-3c4.5,-3.6,6.2,-8.9,5.2,-15.8c-0.1,-0.8,0.2,-1.7,0.9,-2.3Z" class="g2_1" />
<path d="M77.8,186.5c-7.6,-0.2,-13.9,2,-16.2,5.9c-4.1,7.1,0.8,13.3,3.6,15c6.6,4,12.9,1.4,13.4,-1c-1.8,-2.1,-4.9,-6.6,-6.7,-6.7c-2.5,-0.1,-2.3,-3.3,-0.5,-3.9c4.5,-1.5,8.7,6.9,15.1,11.4c5.6,4,13.5,1.1,13.5,-0.6C96.6,203.5,92.5,186.8,77.8,186.5Z" class="g2_1" />
<path d="M228.8,206.2c5.2,5.3,12.4,3,12.7,1.3c-0.6,-1.1,-3.9,-5.9,-5.8,-7c-1.6,-0.9,-2.6,-2.3,-1.8,-3.5c1.4,-2.1,4.3,-0.6,6.1,1.6c1.9,2.2,6.9,8.8,8.7,9.8c4.6,2.6,14.8,1.7,13.9,-1.3c-2.8,-4.4,-4.7,-13.4,-13.1,-17.4c-8.7,-4,-19.8,-3,-30.1,0.7c1.9,3.7,6.7,13.1,9.4,15.8Z" class="g2_1" />
<path d="M167.8,189.4c-8.7,-4,-20.9,-2.7,-31.2,1c2.8,3.8,7.6,12.7,10,15.7c4.8,5.8,12.9,2.8,13.2,1.1c-0.6,-1.1,-4.9,-6.7,-6.6,-7.6c-1.5,-0.9,-2.4,-2.3,-1.5,-3.5c1.4,-2.1,4.8,0,6.6,2.2c1.9,2.2,7,8.7,8.7,9.8c5.1,3.4,14.8,1.7,14,-1.3c-3.4,-4.4,-4.8,-13.4,-13.2,-17.4Z" class="g2_1" />
<path d="M102.7,255.9c-6.1,0.2,-12.2,2.6,-15.7,2l0,41.4c0,0,2.2,1.7,8.4,-0.1c8,-2.3,11.6,0.2,11.6,0.2l0,-41.7c0,0,-1,-1.9,-4.3,-1.8Z" class="g2_1" />
<path d="M124.9,428.8c6.1,1.7,8.4,0,8.4,0l0,-41.3c-3.6,0.6,-9.6,-1.8,-15.8,-2c-3.3,-0.1,-4.2,1.8,-4.2,1.8l0,41.7c0,0,3.5,-2.5,11.6,-0.2Z" class="g2_1" />
<path d="M259.4,255.9c-3.3,-0.1,-4.2,1.8,-4.2,1.8l0,41.7c0,0,3.5,-2.5,11.6,-0.2c6.1,1.8,8.4,0.1,8.4,0.1l0,-41.4c-3.6,0.6,-9.6,-1.8,-15.8,-2Z" class="g2_1" />
<path d="M117.5,255.9c-3.3,-0.1,-4.2,1.8,-4.2,1.8l0,41.7c0,0,3.5,-2.5,11.6,-0.2c6.1,1.8,8.4,0.1,8.4,0.1l0,-41.4c-3.6,0.6,-9.6,-1.8,-15.8,-2Z" class="g2_1" />
<path d="M107,429l0,-41.7c0,0,-1,-1.9,-4.3,-1.8c-6.1,0.2,-12.2,2.6,-15.7,2l0,41.3c0,0,2.2,1.7,8.4,0c8,-2.3,11.6,0.2,11.6,0.2Z" class="g2_1" />
<path d="M256,387.3l0,41.7c0,0,3.5,-2.5,11.5,-0.2c6.2,1.7,8.5,0,8.5,0l0,-41.3c-3.6,0.6,-9.6,-1.8,-15.8,-2c-3.3,-0.1,-4.2,1.8,-4.2,1.8Z" class="g2_1" />
<path d="M244.6,255.9c-6.1,0.2,-12.2,2.6,-15.7,2l0,41.4c0,0,2.2,1.7,8.4,-0.1c8,-2.3,11.6,0.2,11.6,0.2l0,-41.7c0,0,-0.9,-1.9,-4.3,-1.8Z" class="g2_1" />
<path d="M229.7,387.5l0,41.3c0,0,2.2,1.7,8.4,0c8,-2.3,11.6,0.2,11.6,0.2l0,-41.7c0,0,-1,-1.9,-4.3,-1.8c-6.2,0.2,-12.2,2.6,-15.7,2Z" class="g2_1" />
<path d="M287.1,309.1l-28.4,0l0,3.6l-11.8,0l0,-3.6l-28.4,0l0,-48l6.1,0l0,-8.7c6.1,1.5,16.2,-1.9,20.7,-1.9c5,0,7.5,2.1,7.5,2.1c0,0,2.6,-2.1,7.5,-2.1c4.5,0,14.6,3.3,20.7,1.9l0,8.7l6.1,0l0,48Zm14.8,-71.5l-99.1,0l0,89.9l99.1,0l0,-89.9Z" class="g2_1" />
<path d="M144.4,309.1l-28.4,0l0,3.6l-11.8,0l0,-3.6l-28.4,0l0,-48l6.1,0l0,-8.7c6.2,1.5,16.2,-1.9,20.7,-1.9c5,0,7.5,2.1,7.5,2.1c0,0,2.6,-2.1,7.6,-2.1c4.5,0,14.5,3.3,20.7,1.9l0,8.7l6,0l0,48Zm15.1,-71.5l-99.2,0l0,89.9l99.2,0l0,-89.9Z" class="g2_1" />
<path d="M202.8,488.2c24.9,-7.3,49.7,-16.9,66.5,-32.3c5.9,-5.4,10.8,-11.1,15,-17.2l-25.6,0l0,3.5l-11.8,0l0,-3.5l-28.4,0l0,-48l6.1,0l0,-8.8c6.1,1.5,16.2,-1.9,20.7,-1.9c5,0,7.5,2.2,7.5,2.2c0,0,2.6,-2.2,7.5,-2.2c4.5,0,14.6,3.4,20.7,1.9l0,8.8l6.1,0l0,43.4C296.2,418.3,300.6,399,302,371.8l-0.1,-4.1l-99.1,0l0,120.5Z" class="g2_1" />
<path d="M75.8,433.6l0,-42.9l6.1,0l0,-8.8c6.2,1.5,16.2,-1.9,20.7,-1.9c5,0,7.5,2.2,7.5,2.2c0,0,2.6,-2.2,7.6,-2.2c4.5,0,14.5,3.4,20.7,1.9l0,8.8l6,0l0,48l-28.4,0l0,3.5l-11.8,0l0,-3.5l-25.3,0c4.1,6.1,8.9,11.8,14.5,17c15.8,14.9,40.6,24.9,66.1,32.4l0,-120.4l-99.2,0l0.2,3.9c1,24.8,5.7,45.1,15.3,62Z" class="g2_1" />
<path d="M298.1,158.2c-5.3,1,-11.7,2.5,-19.5,5.5c-10.3,4,-30.7,5.2,-39,5c-8,-0.1,-10.6,3.4,-13.4,2.9C226,167.3,223.5,161,223.5,161c2.3,-1.2,9.8,-3.8,16.4,-3.5c8.8,0.3,24.8,1,33.1,-0.3c4,-0.7,18.8,-0.7,21.1,-0.7c1.7,0,4.3,0.3,5,0.4c3.5,0.6,0.8,0.9,-1,1.3Zm-48.6,31.5c8.4,4,10.3,13,13.1,17.4c0.9,3,-9.3,3.9,-13.9,1.3c-1.8,-1,-6.8,-7.6,-8.7,-9.8c-1.8,-2.2,-4.7,-3.7,-6.1,-1.6c-0.8,1.2,0.2,2.6,1.8,3.5c1.9,1.1,5.2,5.9,5.8,7c-0.3,1.7,-7.5,4,-12.7,-1.3c-2.7,-2.7,-7.5,-12.1,-9.4,-15.8c10.3,-3.7,21.4,-4.7,30.1,-0.7Zm30.8,-2.8c18.1,1.5,22.4,13.5,20.6,17.3c-1.6,3.4,-12.7,7.8,-29.5,3.1c-5.5,-2.5,-9.9,-15.3,-11.6,-16.9c-0.6,-0.6,9.8,-4.4,20.5,-3.5Zm-90.6,21c-5.5,-2.5,-9.9,-15.2,-11.5,-16.9c-0.7,-0.6,9.8,-4.4,20.4,-3.5c18.1,1.5,18.2,12.8,22.6,18.4c1.7,2,-14.6,6.7,-31.5,2ZM167,208.1c-1.7,-1.1,-6.8,-7.6,-8.7,-9.8c-1.8,-2.2,-5.2,-4.3,-6.6,-2.2c-0.9,1.2,0,2.6,1.5,3.5c1.7,0.9,6,6.5,6.6,7.6c-0.3,1.7,-8.4,4.7,-13.2,-1.1c-2.4,-3,-7.2,-11.9,-10,-15.7c10.3,-3.7,22.5,-5,31.2,-1c8.4,4,9.8,13,13.2,17.4c0.8,3,-8.9,4.7,-14,1.3ZM107.8,207c-5.6,-2.5,-9.9,-15.3,-11.6,-16.9c-0.6,-0.6,9.8,-4.4,20.5,-3.5c18.1,1.5,18.1,12.8,22.6,18.4c1.6,2,-14.7,6.7,-31.5,2Zm-21.3,0.2C80.1,202.7,75.9,194.3,71.4,195.8c-1.8,0.6,-2,3.8,0.5,3.9c1.8,0.1,4.9,4.6,6.7,6.7c-0.5,2.4,-6.8,5,-13.4,1c-2.8,-1.7,-7.7,-7.9,-3.6,-15c2.3,-3.9,8.6,-6.1,16.2,-5.9c14.7,0.3,18.8,17,22.2,20.1c0,1.7,-7.9,4.6,-13.5,0.6Zm35.2,-37.9c-1.4,-0.5,-10,-3.6,-15.1,-3.2C96.2,166.8,83,163.6,76.4,161c-1.7,-0.7,-16,-1.9,-2,-1.9c4.5,0,10.3,-1.3,19.4,0c5.4,0.8,14.7,1.7,28.9,0.6c7,-0.6,12.3,1.7,15,4.3c-0.7,2.1,-1.6,7.1,-1.8,8.8c-3.7,0.1,-10.4,-2.1,-14.2,-3.5ZM113.9,136c1.2,-1.5,2.4,-4.2,3,-6.1c0.7,0.4,1.2,0.7,1.5,0.9c0.2,0.1,4.2,2.8,6.6,3.9c10.4,4.9,17,6.1,24.1,11.9c-2.6,2.8,-5.2,6.1,-6.9,9C127.3,151.4,115.6,138.1,113.9,136Zm-5.8,-2.3c-6.2,4.9,-16.4,5.4,-22.6,3c-0.8,-0.3,-1.7,-0.2,-2.4,0.3c-4.2,3.1,-8.8,3.3,-12.6,0.7c-3.8,-2.5,-5.7,-7.2,-4.7,-11.3c1.5,-5.8,8.5,-9.8,19.2,-10.9c1.1,-0.1,2,-0.9,2.2,-2c2,-9.8,8.3,-11.3,14.5,-12.7l2.6,-0.6c1.3,-0.3,2.1,-1.5,1.9,-2.8c-0.3,-1.8,1.4,-8.1,6.6,-12.1c6,-4.7,15.1,-4.8,26.2,-0.4c0.6,0.3,1.3,0.3,2,0c0.6,-0.3,1.1,-0.8,1.3,-1.5c2.8,-8,8.3,-13.7,15.6,-15.9c7.4,-2.3,15.6,-0.7,22.5,4.5c0.8,0.6,2,0.7,2.8,0.1c6.8,-4.4,14.9,-5.8,22.2,-3.9c8.1,2.2,15,8.3,19.8,17.7c0.6,1.1,1.9,1.6,3.1,1.2c7.6,-2.6,13.8,-2.7,17.9,-0.2c3.9,2.4,5.2,6.6,5.7,9.7c0.1,0.7,0.5,1.4,1.1,1.8c0.7,0.4,1.5,0.4,2.2,0.2c8,-2.7,16.1,-2.3,21.7,1.1c3.6,2.2,5.8,5.5,6.4,9.5c0.2,1.1,1.2,2,2.4,2.1c7,0.4,12,3.6,13.7,8.6c1.5,4.5,0,9.6,-3.8,12.8c-5.3,4.5,-13.8,4.2,-23.1,-0.8c-0.8,-0.4,-1.6,-0.4,-2.4,0c-7.3,3.7,-14.2,4,-20.5,0.7c-7.5,-3.8,-11.8,-11.3,-12.3,-15.2c-0.1,-0.6,-0.5,-1.3,-1,-1.7c-0.6,-0.4,-1.3,-0.5,-1.9,-0.4c-5.2,0.8,-22.5,2.3,-26.1,-14.2c-0.2,-0.9,-0.7,-1.5,-1.5,-1.9c-0.8,-0.3,-1.7,0.3,-2.3,0.8c-11.3,7.4,-22.3,6.9,-32.9,-1.6c-1,-0.8,-2.5,-0.9,-3.4,0c-12,12.2,-22,11.3,-26.8,9.4c-1.1,-0.5,-2.4,-0.1,-3.1,0.9c-4.7,7.4,-14.7,9,-21.7,6.7c-0.8,-0.3,-1.7,-0.3,-2.4,0.2c-0.7,0.6,-1,1.5,-0.9,2.3c1,6.9,-0.7,12.2,-5.2,15.8Zm84.6,-6.4c-1.2,2.9,-1.6,4.4,-2,6c0.8,-6.1,-0.8,-15.2,-2.6,-23c5.4,0.1,10.8,-1.3,16.2,-4.3c0.4,1.2,1,2.2,1.6,3.3c-3.1,2.8,-10.4,10.8,-13.2,18Zm25.3,-6c0.2,-0.3,0.4,-0.8,0.7,-1.2c4.4,1.4,9.3,1.8,14,1.3c0.5,1.6,1.3,3.2,2.2,4.9c0,0,0,0.1,0,0.1c-2.4,1.1,-9.6,6,-20.1,11.8c-2.7,1.5,-4.3,3,-5.3,4c1.2,-1.6,2.6,-3.6,3.5,-5.9c1.8,-4.7,1.3,-8.5,5,-15Zm-6.3,1.6c-2.3,5,-1.1,11.5,-7.1,17.4c-0.8,-0.7,-6.8,-3.6,-9.1,-4.5c1,-8,8.4,-17.9,13.2,-22c1.5,1.7,3.6,3.2,5.5,4.3c-0.5,0.9,-1.5,2.6,-2.5,4.8Zm-36.5,-0.8c0.5,-7.7,1.9,-12.9,2.1,-13.9c1.6,0.8,3.6,1.5,5.5,2c1.5,3.2,4.1,15.9,3,23.6c-3.5,-0.3,-7.6,-0.3,-10,0c-0.8,-1.4,-0.9,-7.6,-0.6,-11.7Zm5.9,15.7c23.1,0,41.2,18.1,41.2,41.2c0,1.6,-0.1,3.9,-0.4,6.1c-2.5,0.7,-5,1.6,-7.3,2.8c-12,-7,-28.2,-6.6,-39.5,-0.1c-7,-5.6,-22.7,-6,-34.6,-3.2c-0.4,-2.3,-0.6,-4.5,-0.6,-5.6c0,-22.7,18.4,-41.2,41.2,-41.2ZM159.3,126.9c2.9,3.9,5.5,8.4,6.1,9.3c-2.5,0.9,-6.8,3.1,-9.3,4.8c-4.7,-4.9,-8.4,-19.5,-10.7,-23.4c-0.9,-1.5,-1.5,-2.5,-2,-3.3c1.6,0.5,4.2,0.4,5.7,0.5c0.5,0.6,4.5,4.6,10.2,12.1Zm10.5,6.9l0.2,0.4c0,0,-3.7,-5.5,-4.1,-6.2c-1.3,-2,-2.9,-3.9,-4.7,-6.2c-2.9,-3.4,-5.5,-6.3,-7.4,-8.4c4.8,-1.2,10.3,-3.9,16.2,-9.5c0.7,0.4,1.3,0.8,2,1.2c-0.4,1.9,-0.7,3.6,-0.9,4.9c-1.4,7.4,-1.5,13.2,-1.6,15.6c-0.1,2.4,0.2,6,0.3,8.2ZM118.3,121.4c6.7,1.1,14.5,-0.5,20.1,-5.6c6.9,11.1,7.1,21.2,13.8,28.1c-8.4,-8.2,-15.8,-8.1,-27.9,-14.6c-2.1,-1.1,-5.2,-3.1,-6.1,-3.6c0.1,-1,0.2,-2.1,0.2,-3.2c0,-0.3,-0.1,-0.7,-0.1,-1.1Zm114.4,20.3c-7.9,9.4,-11.9,12.6,-13.3,12.6c-1.6,-3.1,-4.9,-6.7,-7.2,-8.7c2.9,-3.2,15.3,-9,21,-13.3c0.8,-0.6,3.3,-2.2,4.4,-2.8c1.5,1.8,3.2,3.5,5.3,4.9c-4.9,2.8,-7.6,4.3,-10.2,7.3Zm80.2,12.6c-1.5,-1,-17.3,-3,-19.8,-3c-2.4,0,-16,0.1,-21.3,0.9c-8.2,1.2,-22.2,1.2,-32.8,0c-3.8,-0.4,-8.1,0.5,-11.5,1.6c0.6,-0.5,1.4,-1.2,2.3,-2.1c3.1,-3.2,6.6,-9.4,12.8,-12.4c1.6,-0.8,3.1,-1.6,4.5,-2.4c5.2,2.6,13.5,4.4,23.7,-0.4c15.3,7.6,24.4,2.5,27.6,-0.3c4,-3.3,6.2,-8.2,6.2,-13.1c0,-1.7,-0.3,-3.5,-0.9,-5.1c-2.2,-6.7,-8.2,-10.8,-16.5,-11.8c-0.5,-1.8,-1.3,-3.4,-2.2,-5c1,-1.2,1.9,-2.4,2.5,-3.1c0.7,-0.9,3.2,-5,-3.5,-1.6c-0.3,0.2,-1,0.6,-1.8,1c-0.9,-0.9,-2,-1.7,-3.2,-2.5c-6.2,-3.8,-14.7,-4.3,-23.4,-1.9c-1.3,-4.7,-3.5,-8.6,-7.2,-10.8C244.5,79.9,239.7,79.2,234,80.1c0.4,-0.8,0.7,-1.6,1,-2.2c2.5,-5.3,1.1,-6.6,-1.5,-4.2c-3,2.6,-4.9,4.5,-6.4,6C221.7,71.1,214.6,65.2,206.2,63C198.9,61.1,191.1,62.1,184,65.5c-0.4,-3.5,-0.9,-6.4,-1.4,-8.1c-1.3,-4.3,-2.9,-1,-3.2,0.4c-0.3,1.8,-0.7,4.2,-1.1,7.1c-7.1,-3.8,-15,-4.8,-22.4,-2.6c-8.1,2.5,-14.2,8.5,-17.8,16.9c-2.9,-1,-5.6,-1.7,-8.1,-2.1c-1.5,-2,-3.7,-4.4,-6.7,-7.1c-2.1,-1.8,-3.8,-0.9,-2.6,2.7c0.5,1.4,1,2.7,1.3,3.8c-5.7,0.4,-9.9,2.2,-12.8,4.4c-5.6,4.4,-7.9,10.6,-8.3,14.5c-0.4,0.1,-0.8,0.2,-0.8,0.2c-4.7,1.1,-11,2.8,-15,9.1c-0.7,-0.4,-1.2,-0.7,-1.4,-0.9c-11.9,-7.9,-6.4,2.3,-1.9,6.7c-15.7,2.3,-20.2,9.8,-21.3,14.3c-0.3,1.2,-0.4,2.4,-0.4,3.5c0,5.1,2.6,10.3,7.1,13.3c5.3,3.6,11.7,3.3,17.4,-0.3c7.4,2.4,17.9,2,25.4,-3.5c4.3,4.7,7.8,8,9.7,9.9c4.8,4.7,11.7,8.3,15.2,9.7c-3.5,-1.4,-9.3,-2.9,-15.1,-2.1c-12.6,1.8,-21,-0.5,-26.4,-1c-8.9,-0.9,-18,0.6,-22.6,0.6c-4.8,0,-11.6,2.3,-14.9,2.8c-3.6,0.5,-3.4,2.9,1.6,4.2c4.9,1.4,14.2,2.2,16.7,3.3c8.1,3.5,21.5,6.4,31,5.6c6.7,-0.5,13.5,2.8,15.3,3.3c3.3,1,11.6,3.3,15,3.2c0,-0.2,0,4.8,0.3,7.2c-1.3,0.4,-2.5,0.8,-3.6,1.3c-3.8,-2.3,-20.3,-9,-40.4,-0.6c-4.3,-1.5,-13.3,-6.5,-25.7,-2.4c-15.2,5,-12.7,19,-7.7,25.4c6.8,8.6,19.4,6.9,23,2.5c8.2,5.5,16.6,3.6,22.6,-0.1c4,2.3,23.6,6.2,38.5,0.1c2,1.5,10.2,5.8,20.7,0.5c6.1,3.6,16.1,3.9,21.2,-0.6c1.9,1.6,7.5,3.8,19.4,3.7c14.3,-0.2,17.6,-2.3,19.7,-4.1c3,1.5,11.1,5.7,21,1.4c5.4,3.4,16.1,3.2,21.9,-0.6c10.5,4.8,29.8,2.6,34.6,-0.7c8.6,-6,4.4,-18.2,-5.1,-24c-18.7,-9.4,-36.1,-2.1,-40.7,0.3c-5.5,-3.7,-17,-6.1,-29,-3.9c0.2,-1.4,0,-3,0,-4.9c0,-0.1,0,-0.3,0,-0.5c2.4,-0.7,5.7,-3.3,12.6,-3.7c9.3,-0.7,31.3,-0.4,42.4,-6c6.2,-3.2,28.1,-7.5,31,-9.2c3,-1.7,2.2,-3,0.7,-4.1Z" class="g1_1" />
<path d="M86.1,123c-4.4,0,-8,0.1,-11.1,3.5c-3.3,3.6,-2.5,5.5,-3.1,6.2C71,133.6,68.7,132,68.8,130.2C69,121.8,79.2,118.5,85.2,119.1c2.4,0.3,2.9,3.9,0.9,3.9Z" class="g1_1" />
<path d="M104.1,108.8c-6.5,0.7,-8.4,3.9,-9.5,7.5c-0.5,1.3,-4.1,0.4,-3.6,-2.3c1.7,-8,10.4,-9.9,13.5,-9.2c1.1,0.2,0.7,3.9,-0.4,4Z" class="g1_1" />
<path d="M132.2,91.5C120.7,87,115,95.7,113.1,102.6c-0.2,0.9,-4.1,0.5,-3.5,-2.4c1.3,-7,8.2,-17.2,23.8,-13.2c2,0.4,0.8,5.3,-1.2,4.5Z" class="g1_1" />
<path d="M175,80.2C164.5,73,156.2,78.8,151.8,84c-2.1,2.5,-4.3,-1.6,-3.4,-3c3.8,-6,16.8,-15.3,28.3,-5.1c1.3,1.1,-0.2,5.3,-1.7,4.3Z" class="g1_1" />
<path d="M218.3,90c-0.8,0.7,-1.4,-0.8,-1.9,-1.7c-9.4,-14.9,-26.5,-10.9,-31,-4c-1,1.4,-3.4,-2.4,-2.2,-4.4c4.1,-6.7,25.7,-13,36.8,6c1.2,2.1,-0.4,3.3,-1.7,4.1Z" class="g1_1" />
<path d="M244.8,99.4c-2.7,-6.9,-7.7,-6.7,-13.6,-4.8C228.4,95.5,229.1,91,230,90.7c5.7,-2.1,15.5,-3,18.1,6.6c0.7,2.7,-2.6,4,-3.3,2.1Z" class="g1_1" />
<path d="M275.8,114.3C271.1,105.6,263.4,105.6,257,108c-1.4,0.6,-2.7,-3,-0.5,-4.3c6.2,-3.6,18.8,-2.9,22.8,8.3c0.6,1.9,-1.9,5.2,-3.5,2.3Z" class="g1_1" />
<path d="M295.5,128c-0.3,1.5,-3.9,1.6,-3.8,0.1c0.5,-7.2,-3,-7.7,-7.7,-7.7c-1.8,0.1,-1.6,-3.8,-0.3,-4.1c6.4,-1.4,14,3.2,11.8,11.7Z" class="g1_1" />
<path d="M172.1,165c-0.1,2.6,-2.4,4.7,-5.1,4.5c-2.6,-0.1,-4.6,-2.4,-4.5,-5l0.1,-0.5c-0.5,-0.7,-2.6,-1.4,-5.8,0.6c-1.6,1,-3.4,0.3,-0.6,-2.1c2.9,-2.6,5.8,-4.1,8.2,-4.4l0.1,0c4.2,-0.3,9.6,0.5,12.2,1.6c1,0.4,-0.1,5.6,-0.3,5.5c-0.9,-0.2,-2.7,-1,-4.3,-0.6l0,0.4Z" class="g1_1" />
<path d="M185.8,179.3c-0.8,2.5,-9.5,3.3,-11.1,0.1c-0.6,-1.3,-1.5,-4.5,-0.3,-3.9c1.9,1.2,8.9,0.4,10.2,0c1.2,-0.3,0.4,-1.9,1.1,-1.7c0.9,0.3,0.9,3.2,0.1,5.5Z" class="g1_1" />
<path d="M206.2,165.8c-2.2,-1.8,-5,-2.6,-6.1,-1.8l0,0.4c0.3,2.6,-1.7,4.9,-4.3,5.2c-2.7,0.2,-5,-1.8,-5.2,-4.4l0,-0.2c-1.7,-0.6,-4.5,0.4,-4.9,0.2c-0.2,-0.1,-1.4,-4.9,0.2,-5.6c4.1,-1.6,17.4,-2.5,21.3,5c0.4,0.9,0.2,2.1,-1,1.2Z" class="g1_1" />
<path d="M54.3,231.5l0,133c0,44,10.9,74.4,34.4,95.8c23.4,21.3,58.3,32,92.4,40.1c35.1,-8.3,68.9,-18.6,92.5,-40.1C297,438.9,308,408.5,308,364.5l0,-133l-253.7,0ZM249.7,387.3l0,41.7c0,0,-3.6,-2.5,-11.6,-0.2c-6.2,1.7,-8.4,0,-8.4,0l0,-41.3c3.5,0.6,9.5,-1.8,15.7,-2c3.3,-0.1,4.3,1.8,4.3,1.8Zm26.3,0.2l0,41.3c0,0,-2.3,1.7,-8.5,0C259.5,426.5,256,429,256,429l0,-41.7c0,0,0.9,-1.9,4.2,-1.8c6.2,0.2,12.2,2.6,15.8,2Zm11.1,46.6l0,-43.4l-6.1,0l0,-8.8c-6.1,1.5,-16.2,-1.9,-20.7,-1.9c-4.9,0,-7.5,2.2,-7.5,2.2c0,0,-2.5,-2.2,-7.5,-2.2c-4.5,0,-14.6,3.4,-20.7,1.9l0,8.8l-6.1,0l0,48l28.4,0l0,3.5l11.8,0l0,-3.5l25.6,0c-4.2,6.1,-9.1,11.8,-15,17.2c-16.8,15.4,-41.6,25,-66.5,32.3l0,-120.5l99.1,0l0.1,4.1c-1.4,27.2,-5.8,46.5,-14.9,62.3Zm-89.5,55.6l-16.5,4.2l-16.4,-4.2l0,-127.5l-104.4,0l0,-29.2l104.4,0l0,-95.4l32.9,0l0,95.4l104.3,0l0,29.2l-104.3,0l0,127.5ZM113.3,429l0,-41.7c0,0,0.9,-1.9,4.2,-1.8c6.2,0.2,12.2,2.6,15.8,2l0,41.3c0,0,-2.3,1.7,-8.4,0c-8.1,-2.3,-11.6,0.2,-11.6,0.2ZM87,428.8l0,-41.3c3.5,0.6,9.6,-1.8,15.7,-2c3.3,-0.1,4.3,1.8,4.3,1.8l0,41.7c0,0,-3.6,-2.5,-11.6,-0.2c-6.2,1.7,-8.4,0,-8.4,0Zm72.5,59.3C134,480.6,109.2,470.6,93.4,455.7C87.8,450.5,83,444.8,78.9,438.7l25.3,0l0,3.5l11.8,0l0,-3.5l28.4,0l0,-48l-6,0l0,-8.8c-6.2,1.5,-16.2,-1.9,-20.7,-1.9c-5,0,-7.6,2.2,-7.6,2.2c0,0,-2.5,-2.2,-7.5,-2.2c-4.5,0,-14.5,3.4,-20.7,1.9l0,8.8l-6.1,0l0,42.9C66.2,416.7,61.5,396.4,60.5,371.6l-0.2,-3.9l99.2,0l0,120.4ZM60.3,237.6l99.2,0l0,89.9l-99.2,0l0,-89.9Zm142.5,0l99.1,0l0,89.9l-99.1,0l0,-89.9Z" class="g1_1" />
<path d="M133.3,299.3c0,0,-2.3,1.7,-8.4,-0.1c-8.1,-2.3,-11.6,0.2,-11.6,0.2l0,-41.7c0,0,0.9,-1.9,4.2,-1.8c6.2,0.2,12.2,2.6,15.8,2l0,41.4ZM107,299.4c0,0,-3.6,-2.5,-11.6,-0.2C89.2,301,87,299.3,87,299.3l0,-41.4c3.5,0.6,9.6,-1.8,15.7,-2c3.3,-0.1,4.3,1.8,4.3,1.8l0,41.7Zm31.4,-38.3l0,-8.7c-6.2,1.4,-16.2,-1.9,-20.7,-1.9c-5,0,-7.6,2.1,-7.6,2.1c0,0,-2.5,-2.1,-7.5,-2.1c-4.5,0,-14.5,3.4,-20.7,1.9l0,8.7l-6.1,0l0,48l28.4,0l0,3.6l11.8,0l0,-3.6l28.4,0l0,-48l-6,0Z" class="g1_1" />
<path d="M275.2,299.3c0,0,-2.3,1.7,-8.4,-0.1c-8.1,-2.3,-11.6,0.2,-11.6,0.2l0,-41.7c0,0,0.9,-1.9,4.2,-1.8c6.2,0.2,12.2,2.6,15.8,2l0,41.4Zm-26.3,0.1c0,0,-3.6,-2.5,-11.6,-0.2c-6.2,1.8,-8.4,0.1,-8.4,0.1l0,-41.4c3.5,0.6,9.6,-1.8,15.7,-2c3.4,-0.1,4.3,1.8,4.3,1.8l0,41.7ZM281,261.1l0,-8.7c-6.1,1.4,-16.2,-1.9,-20.7,-1.9c-4.9,0,-7.5,2.1,-7.5,2.1c0,0,-2.5,-2.1,-7.5,-2.1c-4.5,0,-14.6,3.4,-20.7,1.9l0,8.7l-6.1,0l0,48l28.4,0l0,3.6l11.8,0l0,-3.6l28.4,0l0,-48l-6.1,0Z" class="g1_1" />
<path d="M164.7,489.7l16.4,4.2l16.5,-4.2l0,-127.5l104.3,0l0,-29.2l-104.3,0l0,-95.4l-32.9,0l0,95.4L60.3,333l0,29.2l104.4,0l0,127.5Z" class="g3_1" />
<path d="M116.7,186.6c-10.7,-0.9,-21.1,2.9,-20.5,3.5c1.7,1.6,6,14.4,11.6,16.9c16.8,4.7,33.1,0,31.5,-2c-4.5,-5.6,-4.5,-16.9,-22.6,-18.4Z" class="g3_1" />
<path d="M198.6,187.5c-10.6,-0.9,-21.1,2.9,-20.4,3.5c1.6,1.7,6,14.4,11.5,16.9c16.9,4.7,33.2,0,31.5,-2c-4.4,-5.6,-4.5,-16.9,-22.6,-18.4Z" class="g3_1" />
<path d="M271.4,207.3c16.8,4.7,27.9,0.3,29.5,-3.1c1.8,-3.8,-2.5,-15.8,-20.6,-17.3c-10.7,-0.9,-21.1,2.9,-20.5,3.5c1.7,1.6,6.1,14.4,11.6,16.9Z" class="g3_1" />

</svg>
